<svg xmlns="http://www.w3.org/2000/svg" xmlns:xlink="http://www.w3.org/1999/xlink" width="500" zoomAndPan="magnify" viewBox="0 0 375 374.999991" height="500" preserveAspectRatio="xMidYMid meet" version="1.0"><defs><g/><clipPath id="id1"><path d="M 136.746094 134 L 237.996094 134 L 237.996094 250.953125 L 136.746094 250.953125 Z M 136.746094 134 " clip-rule="nonzero"/></clipPath><clipPath id="id2"><path d="M 151 124.203125 L 224 124.203125 L 224 241 L 151 241 Z M 151 124.203125 " clip-rule="nonzero"/></clipPath></defs><rect x="-37.5" width="450" fill="#ffffff" y="-37.499999" height="449.999989" fill-opacity="1"/><rect x="-37.5" width="450" fill="#fffdf7" y="-37.499999" height="449.999989" fill-opacity="1"/><rect x="-37.5" width="450" fill="#ffffff" y="-37.499999" height="449.999989" fill-opacity="1"/><rect x="-37.5" width="450" fill="#fffdf7" y="-37.499999" height="449.999989" fill-opacity="1"/><path fill="#ffffff" d="M 187.503906 249.21875 C 160.457031 249.21875 138.453125 227.132812 138.453125 199.984375 L 138.453125 136.40625 L 236.558594 136.40625 L 236.558594 199.984375 C 236.558594 227.132812 214.554688 249.21875 187.503906 249.21875 Z M 187.503906 249.21875 " fill-opacity="1" fill-rule="nonzero"/><path fill="#bf0606" d="M 146.875 145.402344 L 146.875 199.984375 C 146.875 222.171875 164.859375 240.222656 186.964844 240.222656 C 209.070312 240.222656 227.054688 222.171875 227.054688 199.984375 L 227.054688 145.402344 Z M 146.875 145.402344 " fill-opacity="1" fill-rule="nonzero"/><path fill="#eabe06" d="M 164.476562 228.144531 L 170.425781 231.082031 L 207.605469 229.640625 L 210.636719 227.867188 L 209.953125 231.679688 C 209.953125 231.679688 198.800781 239.496094 192.542969 239.335938 C 186.289062 239.175781 171.125 238.058594 168.484375 236.195312 C 165.84375 234.328125 163.402344 232.5625 163.402344 232.5625 Z M 164.476562 228.144531 " fill-opacity="1" fill-rule="nonzero"/><g clip-path="url(#id1)"><path fill="#000000" d="M 187.375 250.800781 C 159.457031 250.800781 136.746094 228.003906 136.746094 199.984375 L 136.746094 134.828125 L 238 134.828125 L 238 199.984375 C 238 228.003906 215.289062 250.800781 187.375 250.800781 Z M 139.898438 137.988281 L 139.898438 199.984375 C 139.898438 226.261719 161.195312 247.636719 187.375 247.636719 C 213.554688 247.636719 234.851562 226.261719 234.851562 199.984375 L 234.851562 137.988281 Z M 187.375 241.800781 C 164.402344 241.800781 145.710938 223.042969 145.710938 199.984375 L 145.710938 143.824219 L 229.039062 143.824219 L 229.039062 199.984375 C 229.039062 223.042969 210.347656 241.800781 187.375 241.800781 Z M 148.859375 146.984375 L 148.859375 199.984375 C 148.859375 221.300781 166.136719 238.640625 187.375 238.640625 C 208.609375 238.640625 225.890625 221.300781 225.890625 199.984375 L 225.890625 146.984375 Z M 148.859375 146.984375 " fill-opacity="1" fill-rule="nonzero"/></g><path fill="#ffffff" d="M 174.898438 142.441406 L 173.804688 142.800781 C 173.804688 142.800781 173.683594 145.015625 173.957031 146.316406 C 174.230469 147.621094 175.839844 148.875 175.839844 148.875 C 175.839844 148.875 176.261719 151.078125 176.511719 152.65625 C 176.757812 154.234375 178.246094 155.3125 178.246094 155.3125 L 178.164062 160.707031 C 178.164062 160.707031 177.089844 161.703125 177.089844 161.953125 C 177.089844 162.203125 176.925781 165.605469 176.925781 165.605469 L 179.820312 169.589844 L 195.035156 166.601562 L 194.003906 160.261719 C 194.003906 160.261719 193.796875 159.214844 193.796875 158.964844 C 193.796875 158.714844 193.214844 154.898438 193.214844 154.898438 L 194.621094 152.40625 L 195.117188 147.839844 C 196.441406 148.671875 197.929688 146.097656 198.011719 143.855469 C 198.09375 141.617188 195.945312 141.617188 195.945312 141.617188 L 196.371094 139.015625 C 196.371094 139.015625 193.300781 136.882812 191.644531 135.886719 C 189.992188 134.890625 182.960938 135.222656 180.230469 136.300781 C 177.503906 137.382812 175.683594 139.042969 175.9375 140.179688 C 176.191406 141.320312 175.683594 142.695312 175.847656 142.945312 Z M 174.898438 142.441406 " fill-opacity="1" fill-rule="nonzero"/><path fill="#ffffff" d="M 154.726562 197.148438 C 155.421875 196.925781 163.605469 197.847656 164.660156 198.609375 L 164.363281 201.171875 L 165.601562 201.992188 C 165.601562 201.992188 167.355469 204.355469 166.917969 205.136719 C 166.476562 205.917969 165.757812 206.660156 165.757812 206.660156 L 163.625 206.300781 L 162.488281 205.71875 L 161.714844 218.144531 C 161.714844 218.144531 160.285156 217.851562 159.257812 216.269531 C 158.230469 214.683594 157.347656 213.359375 157.347656 213.359375 C 157.347656 213.359375 152.949219 211.152344 152.765625 208.5 C 152.582031 205.851562 153.976562 202.132812 153.976562 202.132812 L 154.636719 200.183594 Z M 206.113281 204.3125 C 206.011719 204.769531 206.867188 205.578125 207.777344 206.136719 C 208.683594 206.691406 210.09375 205.425781 210.246094 205.375 C 210.398438 205.324219 213.117188 214.839844 213.117188 214.839844 L 214.125 213.015625 L 217.203125 214.636719 C 217.203125 214.636719 218.714844 214.484375 220.476562 213.421875 C 222.242188 212.359375 222.546875 207.90625 222.546875 206.136719 C 222.546875 204.363281 219.722656 201.023438 219.722656 201.023438 L 219.824219 196.320312 L 207.761719 198.851562 C 207.761719 198.851562 207.421875 200.875 207.464844 201.28125 C 207.464844 201.28125 206.210938 203.859375 206.113281 204.3125 Z M 206.113281 204.3125 " fill-opacity="1" fill-rule="nonzero"/><path fill="#eabe06" d="M 177.613281 160.308594 L 177.015625 160.648438 L 175.101562 162.3125 L 161.582031 167.949219 C 161.582031 167.949219 159.964844 169.441406 158.433594 171.148438 C 156.902344 172.855469 154.648438 178.703125 154.648438 178.703125 C 154.648438 178.703125 153.074219 186.34375 152.777344 187.878906 C 152.480469 189.417969 152.394531 197.226562 152.394531 197.226562 L 160.941406 197.613281 L 164.558594 199.019531 L 164.515625 200.214844 C 164.515625 200.214844 164.429688 201.15625 164.941406 201.453125 C 165.449219 201.753906 167.066406 203.84375 167.066406 203.84375 L 205.976562 203.972656 L 207.464844 201.28125 L 207.761719 198.851562 L 221.625 196.117188 C 221.625 196.117188 220.222656 186.8125 220.136719 186.386719 C 220.050781 185.960938 214.566406 170.125 213.121094 168.375 C 211.675781 166.625 198.195312 161.671875 198.195312 161.671875 L 194.835938 159.367188 C 194.835938 159.367188 192.75 162.570312 192.199219 163.210938 C 191.644531 163.851562 185.5625 167.734375 185.5625 167.734375 C 185.5625 167.734375 183.691406 166.539062 183.523438 166.496094 C 183.351562 166.453125 177.65625 161.03125 177.65625 161.03125 Z M 174.671875 138.820312 C 174.769531 133.839844 174.964844 126.511719 184.5 125.4375 C 194.035156 124.363281 197.441406 134.621094 196.371094 139.015625 C 196.128906 139.78125 195.144531 139.863281 193.964844 139.3125 C 192.785156 138.761719 189.410156 137.441406 188.617188 137.109375 C 187.820312 136.78125 185.242188 136.148438 183.925781 136.753906 C 182.609375 137.359375 177.425781 140.386719 176.519531 140.605469 C 175.613281 140.828125 174.902344 140.441406 174.875 140.082031 C 174.847656 139.726562 174.671875 138.820312 174.671875 138.820312 Z M 174.671875 138.820312 " fill-opacity="1" fill-rule="nonzero"/><g clip-path="url(#id2)"><path fill="#000000" d="M 189.371094 152.472656 C 189.566406 152.621094 186.085938 152.480469 185.359375 152.472656 C 183.820312 152.457031 182.085938 152.472656 181.15625 152.769531 C 181.644531 152.425781 184.039062 151.101562 184.578125 151.246094 C 185.117188 151.394531 185.292969 151.511719 185.890625 151.234375 C 186.484375 150.953125 188.574219 152.054688 189.371094 152.472656 Z M 194.210938 147.566406 C 194.699219 146.878906 195.238281 146.042969 195.238281 146.042969 L 195.847656 146.730469 C 195.847656 146.730469 195.726562 145.503906 195.847656 145.199219 C 195.972656 144.894531 196.65625 145.199219 196.65625 145.199219 C 196.65625 145.199219 196.3125 144.621094 196.261719 144.179688 C 196.210938 143.738281 196.949219 144.328125 196.949219 144.328125 C 196.949219 144.328125 196.707031 142.953125 196.261719 142.855469 C 195.820312 142.757812 195.847656 143.824219 195.847656 143.824219 C 195.847656 143.824219 195.386719 143.101562 195.386719 143.824219 C 195.386719 144.546875 194.210938 146.191406 193.332031 147.273438 C 192.449219 148.351562 192.125 149.652344 192.109375 151.1875 C 192.253906 149.753906 193.722656 148.253906 194.210938 147.566406 Z M 177.519531 141.234375 C 177.511719 141.242188 177.503906 141.253906 177.5 141.261719 C 177.496094 141.28125 177.503906 141.269531 177.519531 141.234375 Z M 188.148438 141.628906 C 188 141.382812 188.539062 140.890625 188.734375 141.273438 C 188.929688 141.652344 188.929688 142.019531 189.835938 142.144531 C 190.738281 142.265625 190.59375 141.554688 190.886719 141.40625 C 191.179688 141.257812 191.742188 141.578125 192.109375 141.730469 C 191.523438 140.878906 190.570312 140.597656 189.640625 140.546875 C 188.710938 140.5 187.65625 140.886719 187.261719 141.648438 C 187.746094 142.011719 188.292969 141.871094 188.148438 141.628906 Z M 182.523438 154.042969 C 183.355469 156.007812 187.261719 155.566406 187.757812 154.042969 C 186.296875 154.699219 183.234375 154.632812 182.523438 154.042969 Z M 176.804688 144.964844 C 176.414062 144.523438 176.316406 145.113281 175.628906 144.179688 C 174.945312 143.246094 174.699219 144.375 174.652344 144.964844 C 175.042969 144.375 175.628906 145.015625 175.410156 145.199219 C 175.1875 145.382812 174.894531 146.191406 175.410156 146.289062 C 175.921875 146.386719 175.929688 147.46875 175.929688 147.46875 C 175.929688 147.46875 176.019531 145.75 176.167969 146.484375 C 176.316406 147.222656 176.339844 147.78125 177.28125 148.617188 C 178.222656 149.449219 177.890625 150.632812 178.710938 152.425781 C 178.710938 152.082031 178.410156 148.769531 177.585938 147.882812 C 176.753906 146.988281 176.949219 146.191406 176.804688 144.964844 Z M 184 168.703125 L 178.710938 171.449219 C 178.710938 171.449219 175.601562 167.527344 175.410156 163.507812 C 174.339844 167.804688 178.332031 173.171875 178.332031 173.171875 Z M 188.199219 187.132812 L 183.609375 187.132812 C 183.609375 187.132812 185.992188 170.316406 184.976562 168.703125 L 182.632812 188.308594 Z M 221.773438 212.441406 C 220.785156 213.890625 219.601562 214.734375 218.261719 214.953125 C 216.550781 215.234375 215.0625 214.414062 214.261719 213.832031 C 214.207031 213.828125 214.15625 213.828125 214.105469 213.824219 C 214.027344 214.003906 213.957031 214.175781 213.898438 214.339844 C 213.945312 214.539062 213.972656 214.757812 213.933594 214.984375 L 215.355469 219.214844 C 215.359375 219.222656 215.359375 219.230469 215.359375 219.234375 C 215.371094 219.273438 215.378906 219.308594 215.378906 219.34375 C 215.382812 219.351562 215.382812 219.359375 215.382812 219.363281 L 215.578125 224.65625 C 215.585938 224.851562 215.488281 225.03125 215.320312 225.128906 L 210.636719 227.867188 L 210.863281 232.664062 C 210.871094 232.855469 210.773438 233.035156 210.613281 233.132812 C 202.613281 238.03125 192.527344 240.011719 186.324219 240.21875 C 185.785156 240.238281 185.253906 240.246094 184.730469 240.246094 C 171.320312 240.246094 163.828125 234.457031 163.507812 234.203125 C 163.347656 234.078125 163.277344 233.875 163.320312 233.679688 C 163.324219 233.660156 163.734375 231.738281 163.839844 228.292969 C 163.011719 227.921875 162.082031 227.496094 161.027344 227.015625 C 160.835938 226.925781 160.714844 226.730469 160.722656 226.515625 L 161.035156 219.769531 C 160.921875 219.621094 160.890625 219.417969 160.972656 219.234375 C 160.996094 219.183594 161.027344 219.140625 161.066406 219.101562 L 161.109375 218.101562 C 158.800781 216.691406 158.171875 215.382812 157.472656 213.878906 C 155.128906 213.445312 152.664062 211.316406 152.230469 207.382812 C 151.917969 204.578125 153.0625 202.28125 153.773438 201.164062 C 154.152344 200.566406 154.234375 198.820312 154.203125 197.578125 C 153.496094 197.601562 152.859375 197.65625 152.347656 197.746094 C 152.195312 197.769531 152.039062 197.726562 151.921875 197.628906 C 151.804688 197.527344 151.738281 197.378906 151.738281 197.222656 C 151.820312 187.742188 153.210938 180.089844 155.871094 174.480469 C 156.828125 172.460938 158.445312 169.703125 160.699219 168.019531 L 160.738281 167.988281 C 161.523438 167.398438 172.371094 162.945312 174.746094 161.976562 L 177.222656 159.90625 C 177.351562 159.800781 177.523438 159.761719 177.6875 159.804688 C 177.703125 159.417969 177.726562 159.058594 177.746094 158.722656 C 177.824219 157.460938 177.882812 156.550781 177.59375 155.496094 C 177.554688 155.359375 177.578125 155.226562 177.636719 155.113281 C 177.425781 154.855469 177.214844 154.621094 177.007812 154.414062 C 175.863281 153.265625 175.390625 151.707031 175.453125 149.261719 C 174.753906 149.070312 174.136719 148.445312 173.679688 147.453125 C 172.933594 145.832031 172.738281 143.449219 173.636719 142.488281 C 174.035156 142.0625 174.460938 142 174.746094 142.019531 C 174.917969 142.03125 175.082031 142.078125 175.234375 142.144531 C 175.179688 141.773438 175.105469 141.285156 175.003906 140.644531 C 174.992188 140.617188 174.980469 140.589844 174.96875 140.5625 L 174.835938 140.5625 C 174.554688 140.5625 174.324219 140.335938 174.316406 140.050781 C 174.136719 132.691406 175.320312 125.757812 185.09375 124.890625 C 188.246094 124.613281 190.875 125.382812 192.902344 127.175781 C 196.304688 130.191406 197.179688 135.257812 197.316406 138.980469 C 197.324219 139.136719 197.253906 139.289062 197.136719 139.394531 L 196.605469 139.851562 L 196.472656 140.941406 C 196.773438 140.921875 197.082031 141 197.363281 141.175781 C 198.164062 141.667969 198.816406 143.019531 198.230469 145.328125 C 197.800781 147.035156 197.015625 148.136719 196.082031 148.34375 C 195.9375 148.378906 195.800781 148.386719 195.664062 148.375 C 195.632812 149.921875 195.367188 153.117188 193.792969 154.710938 C 193.742188 156.347656 194.152344 157.691406 194.523438 158.6875 C 194.546875 158.667969 194.570312 158.648438 194.601562 158.632812 C 194.777344 158.539062 194.992188 158.554688 195.152344 158.675781 L 198.5 161.171875 C 199.683594 161.554688 210.984375 165.253906 213.601562 168.367188 C 214.996094 170.023438 217.003906 174.449219 218.714844 179.640625 C 219.871094 183.144531 221.863281 189.96875 222.21875 196.316406 C 222.230469 196.46875 222.171875 196.621094 222.058594 196.726562 C 221.949219 196.832031 221.796875 196.882812 221.644531 196.867188 C 221.386719 196.839844 220.941406 196.851562 220.367188 196.898438 C 220.34375 197.8125 220.296875 199.851562 220.351562 200.898438 C 223.453125 203.664062 224.128906 208.992188 221.773438 212.441406 Z M 193.773438 159.636719 C 193.425781 158.753906 192.886719 157.386719 192.769531 155.664062 C 191.480469 156.882812 190.527344 157.992188 189.816406 159.101562 C 189.5625 159.5 189.265625 159.800781 188.929688 160.039062 C 187.824219 161.289062 186.15625 162.503906 184.707031 162.78125 C 183.171875 163.078125 182.398438 163.933594 182.027344 164.539062 C 183.535156 165.8125 185.058594 166.898438 185.800781 167.230469 C 186.289062 166.871094 186.867188 166.464844 187.476562 166.042969 C 189.753906 164.449219 192.992188 162.183594 194.003906 160.261719 C 193.953125 160.09375 193.867188 159.878906 193.773438 159.636719 Z M 177.75 132.257812 C 177.75 132.257812 181.398438 128.902344 184.328125 128.234375 C 183.136719 129.03125 180.261719 133.304688 180.167969 133.445312 C 180.269531 133.289062 184.636719 131.949219 184.636719 131.949219 C 183.8125 132.472656 182.476562 133.898438 181.808594 134.636719 C 182.976562 134.347656 184.273438 134.199219 185.683594 134.261719 C 190.636719 134.476562 194.777344 136.488281 196.222656 138.113281 C 195.910156 133.574219 194.5 129.988281 192.210938 127.960938 C 190.40625 126.363281 188.042969 125.679688 185.1875 125.933594 C 182.117188 126.207031 179.960938 127.101562 178.457031 128.507812 C 178.199219 129.789062 177.75 132.257812 177.75 132.257812 Z M 175.9375 140.179688 C 176.140625 140.472656 177.953125 139.34375 178.824219 138.800781 C 180.6875 137.636719 183.011719 136.1875 185.234375 136.027344 C 187.640625 135.851562 190.449219 137.101562 192.703125 138.105469 C 193.796875 138.59375 195.265625 139.246094 195.726562 139.191406 C 195.445312 138.367188 191.535156 135.5625 185.636719 135.304688 C 182.917969 135.1875 180.648438 135.917969 178.984375 136.886719 C 178.363281 137.347656 177.707031 137.839844 177.113281 138.285156 C 176.761719 138.628906 176.480469 138.96875 176.273438 139.28125 C 175.914062 139.835938 175.917969 140.136719 175.9375 140.179688 Z M 180.953125 158.386719 C 181.328125 159.21875 182.761719 159.714844 184.886719 159.75 C 187.085938 159.785156 188.253906 159.609375 188.941406 158.535156 C 189.851562 157.109375 191.117188 155.703125 192.921875 154.105469 C 192.925781 154.101562 192.929688 154.097656 192.9375 154.09375 C 194.503906 152.707031 194.679688 148.902344 194.613281 147.554688 C 194.605469 147.328125 194.738281 147.121094 194.949219 147.039062 C 195.15625 146.957031 195.394531 147.023438 195.539062 147.195312 C 195.660156 147.34375 195.769531 147.34375 195.855469 147.324219 C 196.167969 147.253906 196.808594 146.699219 197.222656 145.070312 C 197.636719 143.421875 197.320312 142.375 196.820312 142.066406 C 196.554688 141.902344 196.332031 142.015625 196.191406 142.136719 C 196.027344 142.28125 195.796875 142.308594 195.605469 142.207031 C 195.414062 142.105469 195.304688 141.894531 195.332031 141.679688 L 195.511719 140.21875 C 195.027344 140.175781 194.433594 139.980469 193.71875 139.683594 C 193.761719 139.726562 193.804688 139.765625 193.839844 139.808594 L 193.609375 139.640625 C 193.207031 139.472656 192.765625 139.277344 192.28125 139.0625 C 192.226562 139.035156 192.164062 139.011719 192.105469 138.984375 C 191.285156 138.789062 190.378906 138.71875 189.765625 138.816406 C 188.589844 139.007812 186.980469 140.039062 186.980469 140.039062 C 186.980469 140.039062 186.339844 139.324219 186.296875 139.109375 C 187.609375 138.304688 188.78125 138.027344 189.6875 137.96875 C 188.191406 137.402344 186.644531 136.972656 185.308594 137.070312 C 183.835938 137.175781 182.234375 137.96875 180.78125 138.828125 C 181.722656 138.894531 183.820312 139.324219 183.820312 139.324219 L 183.820312 140.183594 C 183.820312 140.183594 181.519531 139.421875 180.5 139.585938 C 179.523438 139.75 177.703125 140.996094 177.519531 141.234375 C 177.566406 141.144531 177.683594 140.894531 177.804688 140.628906 C 177.179688 140.972656 176.625 141.214844 176.15625 141.257812 C 176.535156 143.660156 176.484375 143.683594 176.097656 143.851562 C 175.878906 143.945312 175.621094 143.878906 175.472656 143.691406 C 175.292969 143.4375 174.929688 143.082031 174.671875 143.0625 C 174.632812 143.0625 174.539062 143.054688 174.394531 143.207031 C 173.9375 143.695312 173.953125 145.550781 174.628906 147.015625 C 174.808594 147.40625 175.296875 148.3125 175.96875 148.28125 C 175.976562 148.28125 175.984375 148.28125 175.992188 148.28125 C 176.128906 148.28125 176.265625 148.335938 176.363281 148.433594 C 176.464844 148.539062 176.519531 148.683594 176.511719 148.828125 C 176.386719 151.234375 176.757812 152.683594 177.746094 153.675781 C 178.988281 154.921875 180.351562 157.050781 180.953125 158.386719 Z M 154.652344 196.53125 C 154.660156 196.53125 154.664062 196.53125 154.671875 196.527344 C 154.695312 196.527344 154.71875 196.53125 154.742188 196.53125 C 158.167969 196.507812 163.054688 197.105469 165.15625 198.5625 C 165.175781 198.578125 165.195312 198.601562 165.210938 198.617188 C 165.457031 196.109375 166.96875 179.734375 165.105469 176.199219 C 166.003906 177.25 168.921875 183.632812 168.847656 186.414062 C 169.519531 185.585938 170.792969 182.882812 171.539062 180.855469 C 172.066406 182.28125 171.691406 187.164062 170.566406 191.21875 C 171.167969 190.769531 174.308594 188.214844 175.429688 186.863281 C 175.65625 188.742188 173.5625 194.222656 172.511719 196.101562 C 173.335938 195.726562 176.253906 194.296875 177.601562 193.621094 C 176.929688 196.402344 172.511719 200.53125 172.511719 200.53125 L 176.617188 203.371094 L 202.441406 203.371094 C 203.363281 201.96875 205.355469 198.6875 205.355469 196.539062 C 205.355469 193.738281 202.421875 184.464844 203.59375 181.667969 C 204.769531 178.867188 207.117188 175.039062 207.117188 175.039062 C 206.089844 178.425781 205.648438 185.347656 206.089844 186.820312 C 207.261719 184.464844 209.464844 182.402344 209.464844 182.402344 C 208.289062 186.230469 207.847656 191.089844 208.144531 193.003906 C 209.757812 190.941406 212.691406 189.910156 212.691406 189.910156 C 212.691406 189.910156 209.972656 196.144531 209.886719 197.636719 C 212.78125 196.875 217.109375 196.15625 219.753906 195.902344 C 219.792969 195.894531 219.835938 195.890625 219.878906 195.890625 C 220.367188 195.847656 220.796875 195.820312 221.144531 195.8125 C 220.394531 185.316406 215.203125 171.894531 212.804688 169.039062 C 210.292969 166.054688 198.222656 162.179688 198.101562 162.144531 C 198.046875 162.125 197.996094 162.097656 197.949219 162.0625 L 195.226562 160.03125 C 194.492188 162.410156 190.96875 164.875 188.070312 166.898438 C 187.371094 167.386719 186.714844 167.847656 186.203125 168.238281 C 186.074219 168.335938 185.90625 168.367188 185.75 168.324219 C 184.414062 167.957031 179.667969 164.296875 177.765625 161.707031 C 177.757812 161.699219 177.753906 161.691406 177.746094 161.683594 C 177.609375 161.492188 177.484375 161.308594 177.378906 161.136719 L 175.347656 162.832031 C 175.308594 162.863281 175.261719 162.894531 175.210938 162.914062 C 170.171875 164.972656 161.957031 168.402344 161.359375 168.828125 L 161.320312 168.859375 C 159.382812 170.304688 153.082031 176.5625 152.789062 196.628906 C 153.324219 196.570312 153.957031 196.539062 154.652344 196.53125 Z M 166.9375 203.121094 C 166.976562 203.207031 167.015625 203.289062 167.050781 203.371094 C 167.023438 203.289062 166.984375 203.207031 166.9375 203.121094 Z M 156.785156 212.589844 C 155.480469 209.679688 157.027344 207.660156 157.902344 206.515625 C 158.726562 205.441406 159.117188 204.003906 159.535156 202.480469 L 159.667969 201.992188 C 159.855469 201.320312 160.234375 200.789062 160.761719 200.4375 C 159.445312 200.367188 157.136719 200.898438 156.601562 201.621094 C 157.859375 199.515625 161.375 199.40625 162.765625 200.011719 C 163.1875 200.070312 163.609375 200.203125 164.019531 200.414062 L 164.273438 199.242188 C 162.386719 198.15625 158.367188 197.59375 155.242188 197.566406 C 155.269531 198.609375 155.25 200.785156 154.652344 201.726562 C 154.015625 202.726562 152.992188 204.78125 153.265625 207.269531 C 153.585938 210.15625 155.125 211.90625 156.785156 212.589844 Z M 161.699219 205.242188 C 161.710938 205.042969 161.832031 204.867188 162.015625 204.789062 C 162.199219 204.707031 162.410156 204.742188 162.558594 204.871094 C 162.574219 204.882812 163.832031 205.953125 164.9375 206.125 C 165.417969 206.195312 165.796875 206.0625 166.050781 205.722656 C 166.375 205.296875 166.457031 204.589844 166.238281 204.113281 L 166.234375 204.097656 L 166.140625 203.890625 C 165.699219 202.90625 165.355469 202.128906 164.207031 201.746094 C 164.195312 201.742188 164.183594 201.734375 164.175781 201.730469 C 164.160156 201.726562 164.144531 201.71875 164.128906 201.710938 C 164.113281 201.703125 164.09375 201.691406 164.078125 201.679688 C 164.070312 201.671875 164.0625 201.667969 164.054688 201.664062 C 163.300781 201.085938 162.429688 200.882812 161.722656 201.121094 C 161.195312 201.296875 160.832031 201.695312 160.671875 202.269531 L 160.539062 202.757812 C 160.09375 204.382812 159.675781 205.917969 158.726562 207.15625 C 157.789062 208.378906 156.367188 210.234375 158.261719 213.117188 C 158.269531 213.128906 158.277344 213.144531 158.285156 213.160156 C 158.289062 213.167969 158.292969 213.171875 158.296875 213.179688 L 158.402344 213.40625 C 159.03125 214.753906 159.507812 215.773438 161.164062 216.898438 Z M 209.804688 232.402344 L 209.621094 228.460938 L 207.605469 229.640625 C 207.53125 229.683594 207.449219 229.707031 207.363281 229.710938 C 207.035156 229.722656 205.101562 229.792969 202.273438 229.902344 L 182.25 234.601562 L 188.699219 234.152344 C 188.699219 234.152344 177.683594 238.089844 177.4375 238.136719 C 176.519531 238.230469 166.035156 233.757812 164.480469 233.089844 C 164.453125 233.28125 164.425781 233.441406 164.402344 233.5625 C 165.871094 234.597656 173.660156 239.601562 186.289062 239.175781 C 192.300781 238.972656 202.023438 237.074219 209.804688 232.402344 Z M 214.371094 220.132812 L 207.230469 222.882812 C 207.175781 222.90625 207.117188 222.914062 207.058594 222.917969 L 170.253906 224.019531 C 170.246094 224.019531 170.242188 224.019531 170.238281 224.019531 C 170.164062 224.019531 170.089844 224.003906 170.019531 223.972656 L 162.050781 220.308594 L 161.78125 226.210938 C 162.632812 226.597656 163.601562 227.039062 164.582031 227.480469 C 164.582031 227.480469 164.585938 227.480469 164.585938 227.484375 C 167.265625 228.6875 169.996094 229.894531 170.472656 230.035156 C 171.976562 229.992188 204.835938 228.757812 207.195312 228.667969 L 214.527344 224.382812 Z M 209.792969 205.957031 C 209.035156 206.371094 207.734375 206.90625 206.847656 206.285156 C 206.167969 205.804688 205.820312 205.203125 205.800781 204.417969 L 167.378906 204.417969 C 167.453125 205.097656 167.28125 205.828125 166.882812 206.355469 C 166.390625 207.007812 165.644531 207.292969 164.78125 207.15625 C 164.019531 207.039062 163.253906 206.628906 162.699219 206.265625 L 162.105469 219.179688 L 170.34375 222.972656 L 206.941406 221.875 L 214.210938 219.074219 Z M 219.511719 201.550781 C 219.402344 201.460938 219.335938 201.332031 219.324219 201.191406 C 219.25 200.214844 219.292969 198.054688 219.320312 197 C 215.964844 197.375 210.273438 198.40625 208.214844 199.253906 L 208.082031 200.324219 C 209.875 199.472656 211.359375 199.339844 212.421875 199.945312 C 215.839844 199.214844 218.054688 200.46875 218.523438 201.265625 C 218.46875 201.265625 217.714844 201.027344 217.660156 201.007812 C 217.039062 200.800781 215.121094 200.652344 213.457031 200.839844 C 214.476562 201.96875 215.597656 203.824219 216.230469 205.527344 C 216.332031 205.800781 216.195312 206.101562 215.925781 206.203125 C 215.863281 206.222656 215.804688 206.234375 215.742188 206.234375 C 215.53125 206.234375 215.332031 206.105469 215.253906 205.894531 C 214.53125 203.941406 213.023438 201.621094 212.027344 200.929688 C 211.191406 200.347656 209.660156 200.605469 207.820312 201.632812 C 207.226562 202.691406 206.953125 203.4375 206.867188 203.972656 C 206.863281 203.984375 206.863281 203.996094 206.859375 204.007812 C 206.726562 204.921875 207.148438 205.21875 207.445312 205.425781 C 207.894531 205.742188 209.054688 205.234375 209.730469 204.773438 C 210.46875 203.902344 211.773438 203.363281 211.828125 203.339844 C 212.097656 203.234375 212.398438 203.363281 212.507812 203.628906 C 212.617188 203.898438 212.488281 204.203125 212.21875 204.3125 C 212.210938 204.316406 211.265625 204.707031 210.667969 205.292969 L 213.226562 212.890625 C 213.289062 212.867188 213.355469 212.847656 213.425781 212.832031 C 214.003906 211.671875 214.78125 210.46875 215.234375 209.925781 C 215.421875 209.707031 215.75 209.679688 215.96875 209.863281 C 216.191406 210.050781 216.21875 210.378906 216.035156 210.601562 C 215.683594 211.019531 215.097656 211.90625 214.601562 212.828125 C 214.660156 212.84375 214.714844 212.867188 214.765625 212.90625 C 215.398438 213.386719 216.667969 214.15625 218.09375 213.921875 C 219.144531 213.75 220.09375 213.054688 220.914062 211.847656 C 223.027344 208.757812 222.371094 203.945312 219.511719 201.550781 Z M 183.550781 148.988281 C 184.1875 149.480469 184.988281 149.921875 185.613281 149.480469 C 186.242188 149.039062 187.660156 149.136719 188 148.84375 C 188.34375 148.546875 188 146.878906 188 146.878906 L 186.980469 145.199219 L 186.296875 140.734375 C 185.75 142.414062 186.582031 147.222656 186.582031 147.371094 C 186.582031 147.515625 185.703125 148.546875 185.117188 148.695312 C 184.53125 148.84375 183.699219 148.449219 183.503906 148.398438 C 183.339844 148.359375 182.457031 148.800781 182.175781 148.945312 C 182.40625 148.835938 183.039062 148.59375 183.550781 148.988281 Z M 182.175781 148.945312 C 182.117188 148.96875 182.085938 148.988281 182.085938 148.988281 C 182.085938 148.988281 182.121094 148.972656 182.175781 148.945312 Z M 194.738281 172.695312 C 195.421875 172.695312 198.304688 168.464844 198.21875 163.171875 C 198.058594 164.417969 194.941406 170.859375 194.558594 170.957031 C 194.179688 171.054688 189.078125 169.683594 188.199219 168.703125 C 188.621094 170.707031 194.054688 172.695312 194.738281 172.695312 Z M 181.695312 141.765625 C 181.777344 141.53125 182.09375 141.679688 182.324219 141.832031 C 182.554688 141.980469 182.371094 142.242188 182.371094 142.242188 C 182.371094 142.242188 182.882812 142.011719 183.078125 141.796875 C 182.570312 141.167969 181.515625 141.003906 180.824219 141.035156 C 180.132812 141.070312 179.484375 141.261719 178.710938 142.121094 C 178.710938 142.121094 179.695312 141.320312 179.917969 141.796875 C 180.140625 142.277344 180.460938 142.507812 181.019531 142.410156 C 181.582031 142.308594 181.613281 141.996094 181.695312 141.765625 Z M 181.695312 141.765625 " fill-opacity="1" fill-rule="nonzero"/></g><g fill="#bf0606" fill-opacity="1"><g transform="translate(104.678775, 132.075869)"><g><path d="M 18.578125 -37.265625 C 17.671875 -37.066406 16.65625 -36.921875 15.53125 -36.828125 C 14.414062 -36.742188 13.019531 -36.691406 11.34375 -36.671875 L 11.453125 -26.234375 L 18.78125 -27.859375 L 18.796875 -23.96875 L 11.484375 -22.34375 L 11.625 -2.59375 L 4.40625 -0.984375 L 4.171875 -36.0625 C 1.890625 -35.457031 0.425781 -34.207031 -0.21875 -32.3125 C -0.875 -30.414062 -0.8125 -27.726562 -0.03125 -24.25 C 0.101562 -23.601562 0.265625 -23.054688 0.453125 -22.609375 C 0.648438 -22.160156 0.890625 -21.742188 1.171875 -21.359375 C 1.273438 -21.242188 1.335938 -21.160156 1.359375 -21.109375 C 1.390625 -21.066406 1.410156 -21.023438 1.421875 -20.984375 C -0.453125 -20.566406 -1.898438 -20.65625 -2.921875 -21.25 C -3.941406 -21.851562 -4.640625 -22.988281 -5.015625 -24.65625 C -5.898438 -28.632812 -5.109375 -32.128906 -2.640625 -35.140625 C -0.179688 -38.160156 3.75 -40.273438 9.15625 -41.484375 C 9.46875 -41.554688 9.84375 -41.625 10.28125 -41.6875 C 10.726562 -41.75 11.460938 -41.84375 12.484375 -41.96875 C 13.847656 -42.132812 14.894531 -42.269531 15.625 -42.375 C 16.351562 -42.488281 17.019531 -42.613281 17.625 -42.75 C 18.519531 -42.945312 19.320312 -43.175781 20.03125 -43.4375 C 20.75 -43.707031 21.398438 -44.007812 21.984375 -44.34375 C 21.972656 -44.269531 21.941406 -43.71875 21.890625 -42.6875 C 21.835938 -41.664062 21.691406 -40.828125 21.453125 -40.171875 C 21.203125 -39.523438 20.84375 -38.96875 20.375 -38.5 C 19.90625 -38.03125 19.304688 -37.617188 18.578125 -37.265625 Z M 18.578125 -37.265625 "/></g></g></g><g fill="#bf0606" fill-opacity="1"><g transform="translate(126.860704, 127.037358)"><g><path d="M 13.15625 -25.46875 L 13.21875 -25.125 L 13.359375 -27.890625 L 20.6875 -28.953125 L 19.546875 -11.15625 C 19.523438 -10.832031 19.515625 -10.539062 19.515625 -10.28125 C 19.523438 -10.019531 19.546875 -9.757812 19.578125 -9.5 C 19.691406 -8.738281 19.941406 -8.207031 20.328125 -7.90625 C 20.710938 -7.601562 21.265625 -7.5 21.984375 -7.59375 C 22.867188 -7.726562 23.601562 -8.257812 24.1875 -9.1875 C 24.78125 -10.125 25.179688 -11.390625 25.390625 -12.984375 L 27.53125 -13.296875 C 26.90625 -10.023438 25.84375 -7.472656 24.34375 -5.640625 C 22.84375 -3.804688 20.957031 -2.726562 18.6875 -2.40625 C 17.238281 -2.1875 16.019531 -2.421875 15.03125 -3.109375 C 14.050781 -3.804688 13.382812 -4.890625 13.03125 -6.359375 C 12.207031 -4.648438 11.21875 -3.3125 10.0625 -2.34375 C 8.90625 -1.375 7.597656 -0.785156 6.140625 -0.578125 C 4.046875 -0.265625 2.289062 -0.734375 0.875 -1.984375 C -0.539062 -3.234375 -1.4375 -5.164062 -1.8125 -7.78125 C -2.09375 -9.675781 -2.09375 -11.695312 -1.8125 -13.84375 C -1.53125 -16 -1.003906 -18 -0.234375 -19.84375 C 0.722656 -22.019531 1.953125 -23.757812 3.453125 -25.0625 C 4.960938 -26.375 6.703125 -27.171875 8.671875 -27.453125 C 9.984375 -27.648438 11.03125 -27.570312 11.8125 -27.21875 C 12.59375 -26.875 13.039062 -26.289062 13.15625 -25.46875 Z M 13.046875 -22.90625 C 12.972656 -23.414062 12.722656 -23.835938 12.296875 -24.171875 C 11.867188 -24.515625 11.335938 -24.640625 10.703125 -24.546875 C 8.828125 -24.273438 7.394531 -22.472656 6.40625 -19.140625 C 5.425781 -15.816406 5.160156 -12.628906 5.609375 -9.578125 C 5.804688 -8.265625 6.140625 -7.300781 6.609375 -6.6875 C 7.078125 -6.082031 7.785156 -5.851562 8.734375 -6 C 9.609375 -6.125 10.394531 -6.664062 11.09375 -7.625 C 11.800781 -8.59375 12.203125 -9.742188 12.296875 -11.078125 Z M 13.046875 -22.90625 "/></g></g></g><g fill="#bf0606" fill-opacity="1"><g transform="translate(152.732996, 123.259892)"><g><path d="M 8.25 -5.21875 C 9.132812 -5.28125 9.898438 -5.71875 10.546875 -6.53125 C 11.191406 -7.351562 11.691406 -8.515625 12.046875 -10.015625 L 14.4375 -26.6875 L 21.8125 -27.171875 L 19.28125 -9.515625 C 19.226562 -9.203125 19.191406 -8.914062 19.171875 -8.65625 C 19.160156 -8.394531 19.164062 -8.128906 19.1875 -7.859375 C 19.226562 -7.171875 19.421875 -6.691406 19.765625 -6.421875 C 20.109375 -6.160156 20.65625 -6.050781 21.40625 -6.09375 C 22.300781 -6.15625 23.078125 -6.601562 23.734375 -7.4375 C 24.398438 -8.269531 24.90625 -9.421875 25.25 -10.890625 L 27.40625 -11.03125 C 26.519531 -7.8125 25.257812 -5.347656 23.625 -3.640625 C 21.988281 -1.941406 20.023438 -1.015625 17.734375 -0.859375 C 16.273438 -0.765625 15.070312 -1.109375 14.125 -1.890625 C 13.1875 -2.671875 12.597656 -3.835938 12.359375 -5.390625 C 11.460938 -3.691406 10.414062 -2.398438 9.21875 -1.515625 C 8.03125 -0.628906 6.648438 -0.132812 5.078125 -0.03125 C 3.378906 0.0820312 2.007812 -0.363281 0.96875 -1.375 C -0.0703125 -2.382812 -0.660156 -3.863281 -0.796875 -5.8125 C -0.828125 -6.25 -0.828125 -6.753906 -0.796875 -7.328125 C -0.765625 -7.898438 -0.703125 -8.515625 -0.609375 -9.171875 L 1.78125 -25.84375 L 9.15625 -26.328125 L 6.625 -8.671875 C 6.570312 -8.390625 6.546875 -8.140625 6.546875 -7.921875 C 6.546875 -7.703125 6.550781 -7.472656 6.5625 -7.234375 C 6.613281 -6.546875 6.773438 -6.03125 7.046875 -5.6875 C 7.328125 -5.34375 7.726562 -5.1875 8.25 -5.21875 Z M 8.25 -5.21875 "/></g></g></g><g fill="#bf0606" fill-opacity="1"><g transform="translate(177.865654, 121.671642)"><g><path d="M 16.125 -8.5625 C 16.125 -8.144531 16.101562 -7.78125 16.0625 -7.46875 C 16.03125 -7.164062 15.984375 -6.878906 15.921875 -6.609375 C 16.597656 -7.015625 17.257812 -7.441406 17.90625 -7.890625 C 18.5625 -8.335938 19.132812 -8.765625 19.625 -9.171875 L 21.78125 -9.171875 C 20.707031 -7.941406 19.53125 -6.800781 18.25 -5.75 C 16.96875 -4.707031 15.523438 -3.707031 13.921875 -2.75 C 12.992188 -1.757812 11.8125 -1 10.375 -0.46875 C 8.9375 0.0507812 7.429688 0.3125 5.859375 0.3125 C 3.554688 0.3125 1.726562 -0.3125 0.375 -1.5625 C -0.96875 -2.8125 -1.640625 -4.378906 -1.640625 -6.265625 C -1.640625 -7.328125 -1.378906 -8.289062 -0.859375 -9.15625 C -0.347656 -10.03125 0.300781 -10.65625 1.09375 -11.03125 C 2.257812 -13.125 3.347656 -15.359375 4.359375 -17.734375 C 5.367188 -20.117188 6.390625 -22.953125 7.421875 -26.234375 L 15.03125 -27.25 C 15.113281 -24.675781 15.222656 -22.328125 15.359375 -20.203125 C 15.503906 -18.085938 15.675781 -15.78125 15.875 -13.28125 C 15.976562 -11.84375 16.046875 -10.832031 16.078125 -10.25 C 16.117188 -9.664062 16.132812 -9.101562 16.125 -8.5625 Z M 7.71875 -20.6875 C 7.269531 -19.289062 6.726562 -17.828125 6.09375 -16.296875 C 5.46875 -14.773438 4.625 -13.003906 3.5625 -10.984375 C 3.9375 -10.816406 4.222656 -10.578125 4.421875 -10.265625 C 4.628906 -9.960938 4.734375 -9.601562 4.734375 -9.1875 C 4.722656 -8.539062 4.492188 -7.957031 4.046875 -7.4375 C 3.609375 -6.925781 3.082031 -6.671875 2.46875 -6.671875 C 2.125 -6.671875 1.832031 -6.726562 1.59375 -6.84375 C 1.351562 -6.96875 1.179688 -7.132812 1.078125 -7.34375 C 1.078125 -6.070312 1.320312 -5.15625 1.8125 -4.59375 C 2.3125 -4.03125 3.109375 -3.75 4.203125 -3.75 C 5.609375 -3.75 6.703125 -4.160156 7.484375 -4.984375 C 8.273438 -5.804688 8.671875 -6.984375 8.671875 -8.515625 C 8.679688 -8.992188 8.671875 -9.484375 8.640625 -9.984375 C 8.609375 -10.484375 8.539062 -11.3125 8.4375 -12.46875 C 8.257812 -14.082031 8.117188 -15.503906 8.015625 -16.734375 C 7.921875 -17.972656 7.820312 -19.289062 7.71875 -20.6875 Z M 7.71875 -20.6875 "/></g></g></g><g fill="#bf0606" fill-opacity="1"><g transform="translate(196.930895, 121.747839)"><g><path d="M 3.078125 -25.546875 L 4.765625 -25.46875 L 6.671875 -32.453125 L 14.296875 -33.109375 L 12.15625 -25.09375 L 15.234375 -24.9375 L 14.734375 -22.921875 L 11.640625 -23.0625 L 7.578125 -7.84375 C 7.492188 -7.53125 7.425781 -7.25 7.375 -7 C 7.332031 -6.75 7.304688 -6.488281 7.296875 -6.21875 C 7.265625 -5.539062 7.398438 -5.046875 7.703125 -4.734375 C 8.015625 -4.429688 8.550781 -4.257812 9.3125 -4.21875 C 10.269531 -4.164062 11.195312 -4.535156 12.09375 -5.328125 C 12.988281 -6.117188 13.671875 -7.171875 14.140625 -8.484375 L 16.296875 -8.375 C 15.046875 -5.320312 13.457031 -3.035156 11.53125 -1.515625 C 9.601562 -0.00390625 7.445312 0.6875 5.0625 0.5625 C 3.351562 0.476562 2.035156 -0.125 1.109375 -1.25 C 0.191406 -2.375 -0.210938 -3.914062 -0.109375 -5.875 C -0.0859375 -6.300781 -0.03125 -6.796875 0.0625 -7.359375 C 0.15625 -7.929688 0.285156 -8.535156 0.453125 -9.171875 L 4.265625 -23.4375 L 2.578125 -23.53125 Z M 3.078125 -25.546875 "/></g></g></g><g fill="#bf0606" fill-opacity="1"><g transform="translate(210.172906, 122.402533)"><g><path d="M 15.578125 -31.21875 C 15.472656 -30.101562 14.984375 -29.1875 14.109375 -28.46875 C 13.234375 -27.757812 12.238281 -27.453125 11.125 -27.546875 C 9.988281 -27.648438 9.0625 -28.128906 8.34375 -28.984375 C 7.632812 -29.847656 7.332031 -30.835938 7.4375 -31.953125 C 7.539062 -33.078125 8.019531 -34.003906 8.875 -34.734375 C 9.726562 -35.460938 10.722656 -35.773438 11.859375 -35.671875 C 12.972656 -35.578125 13.894531 -35.09375 14.625 -34.21875 C 15.363281 -33.34375 15.679688 -32.34375 15.578125 -31.21875 Z M 0.125 -5.859375 C 0.164062 -6.296875 0.242188 -6.796875 0.359375 -7.359375 C 0.484375 -7.921875 0.640625 -8.519531 0.828125 -9.15625 L 5.796875 -25.25 L 13.171875 -24.578125 L 7.90625 -7.53125 C 7.800781 -7.226562 7.71875 -6.953125 7.65625 -6.703125 C 7.601562 -6.453125 7.566406 -6.191406 7.546875 -5.921875 C 7.484375 -5.242188 7.597656 -4.742188 7.890625 -4.421875 C 8.191406 -4.097656 8.722656 -3.898438 9.484375 -3.828125 C 10.429688 -3.742188 11.367188 -4.078125 12.296875 -4.828125 C 13.234375 -5.585938 13.957031 -6.617188 14.46875 -7.921875 L 16.625 -7.71875 C 15.25 -4.71875 13.566406 -2.5 11.578125 -1.0625 C 9.597656 0.375 7.414062 0.984375 5.03125 0.765625 C 3.320312 0.617188 2.03125 -0.03125 1.15625 -1.1875 C 0.289062 -2.351562 -0.0507812 -3.910156 0.125 -5.859375 Z M 0.125 -5.859375 "/></g></g></g><g fill="#bf0606" fill-opacity="1"><g transform="translate(223.202424, 123.387983)"><g><path d="M 13.140625 -3.578125 C 13.234375 -4.179688 13.425781 -4.925781 13.71875 -5.8125 C 14.007812 -6.707031 14.539062 -8.117188 15.3125 -10.046875 C 16.082031 -11.898438 16.59375 -13.238281 16.84375 -14.0625 C 17.101562 -14.894531 17.28125 -15.601562 17.375 -16.1875 C 17.5 -17.03125 17.441406 -17.691406 17.203125 -18.171875 C 16.972656 -18.660156 16.554688 -18.953125 15.953125 -19.046875 C 15.140625 -19.171875 14.320312 -18.867188 13.5 -18.140625 C 12.675781 -17.421875 11.941406 -16.363281 11.296875 -14.96875 L 5.375 0.8125 L -1.9375 -0.296875 L 7.265625 -24.875 L 14.578125 -23.765625 L 13.625 -21.21875 C 14.613281 -22.039062 15.632812 -22.613281 16.6875 -22.9375 C 17.738281 -23.257812 18.835938 -23.335938 19.984375 -23.171875 C 21.773438 -22.898438 23.085938 -22.203125 23.921875 -21.078125 C 24.765625 -19.953125 25.046875 -18.457031 24.765625 -16.59375 C 24.648438 -15.8125 24.421875 -14.898438 24.078125 -13.859375 C 23.734375 -12.816406 23.117188 -11.238281 22.234375 -9.125 C 21.535156 -7.457031 21.066406 -6.28125 20.828125 -5.59375 C 20.585938 -4.90625 20.429688 -4.320312 20.359375 -3.84375 C 20.253906 -3.132812 20.34375 -2.578125 20.625 -2.171875 C 20.90625 -1.765625 21.382812 -1.515625 22.0625 -1.421875 C 22.914062 -1.285156 23.6875 -1.457031 24.375 -1.9375 C 25.070312 -2.425781 25.945312 -3.523438 27 -5.234375 L 29.125 -4.90625 C 27.570312 -1.9375 25.910156 0.210938 24.140625 1.546875 C 22.367188 2.878906 20.414062 3.382812 18.28125 3.0625 C 16.382812 2.78125 14.988281 2.039062 14.09375 0.84375 C 13.195312 -0.34375 12.878906 -1.816406 13.140625 -3.578125 Z M 13.140625 -3.578125 "/></g></g></g><g fill="#bf0606" fill-opacity="1"><g transform="translate(248.056316, 127.153281)"><g><path d="M 1.03125 -7.875 C 1.457031 -9.769531 2.21875 -11.71875 3.3125 -13.71875 C 4.414062 -15.71875 5.691406 -17.429688 7.140625 -18.859375 C 8.804688 -20.554688 10.617188 -21.71875 12.578125 -22.34375 C 14.546875 -22.976562 16.597656 -23.054688 18.734375 -22.578125 C 20.878906 -22.097656 22.335938 -21.070312 23.109375 -19.5 C 23.878906 -17.925781 23.960938 -15.800781 23.359375 -13.125 C 23.421875 -13.070312 23.492188 -13.023438 23.578125 -12.984375 C 23.660156 -12.953125 23.765625 -12.921875 23.890625 -12.890625 C 24.929688 -12.660156 26.234375 -12.671875 27.796875 -12.921875 C 29.359375 -13.171875 30.851562 -13.585938 32.28125 -14.171875 L 32.421875 -12.734375 C 31.265625 -11.929688 29.828125 -11.335938 28.109375 -10.953125 C 26.390625 -10.578125 24.5625 -10.441406 22.625 -10.546875 C 21.207031 -6.128906 19.085938 -2.78125 16.265625 -0.5 C 13.441406 1.769531 10.441406 2.550781 7.265625 1.84375 C 4.660156 1.257812 2.820312 0.144531 1.75 -1.5 C 0.6875 -3.144531 0.445312 -5.269531 1.03125 -7.875 Z M 18.46875 -19.421875 C 16.851562 -19.785156 14.972656 -18.507812 12.828125 -15.59375 C 10.691406 -12.675781 9.296875 -9.765625 8.640625 -6.859375 C 8.285156 -5.273438 8.222656 -4.160156 8.453125 -3.515625 C 8.679688 -2.878906 9.289062 -2.445312 10.28125 -2.21875 C 11.519531 -1.945312 12.921875 -2.6875 14.484375 -4.4375 C 16.054688 -6.1875 17.367188 -8.488281 18.421875 -11.34375 C 17.984375 -11.539062 17.695312 -11.835938 17.5625 -12.234375 C 17.425781 -12.640625 17.425781 -13.140625 17.5625 -13.734375 C 17.695312 -14.378906 17.953125 -14.90625 18.328125 -15.3125 C 18.703125 -15.71875 19.171875 -15.984375 19.734375 -16.109375 C 19.898438 -17.179688 19.882812 -17.96875 19.6875 -18.46875 C 19.5 -18.96875 19.09375 -19.285156 18.46875 -19.421875 Z M 18.46875 -19.421875 "/></g></g></g><g fill="#000000" fill-opacity="1"><g transform="translate(105.308662, 274.549991)"><g><path d="M 3.390625 -12.03125 L 3.390625 -7.0625 L 8.625 -7.0625 L 8.625 -6.015625 L 3.390625 -6.015625 L 3.390625 -1.046875 L 8.625 -1.046875 L 8.625 0 L 1.3125 0 L 1.828125 -13.078125 L 8.625 -13.078125 L 8.625 -12.03125 Z M 3.390625 -12.03125 "/></g></g></g><g fill="#000000" fill-opacity="1"><g transform="translate(115.239112, 274.549991)"><g><path d="M 10.71875 -13.078125 L 6.40625 -6.328125 L 10.71875 0 L 8.625 0 L 5.484375 -4.921875 L 2.359375 0 L 0.265625 0 L 4.578125 -6.328125 L 0.265625 -13.078125 L 1.828125 -13.078125 L 5.484375 -7.6875 L 9.15625 -13.078125 Z M 10.71875 -13.078125 "/></g></g></g><g fill="#000000" fill-opacity="1"><g transform="translate(126.214876, 274.549991)"><g><path d="M 6.140625 -13.078125 C 7.515625 -13.078125 8.617188 -12.753906 9.453125 -12.109375 C 10.296875 -11.460938 10.71875 -10.609375 10.71875 -9.546875 C 10.71875 -8.484375 10.296875 -7.628906 9.453125 -6.984375 C 8.617188 -6.335938 7.515625 -6.015625 6.140625 -6.015625 L 3.390625 -6.015625 L 3.390625 0 L 1.3125 0 L 1.828125 -13.078125 Z M 6.140625 -7.0625 C 6.890625 -7.0625 7.488281 -7.285156 7.9375 -7.734375 C 8.394531 -8.191406 8.625 -8.796875 8.625 -9.546875 C 8.625 -10.296875 8.394531 -10.894531 7.9375 -11.34375 C 7.488281 -11.800781 6.890625 -12.03125 6.140625 -12.03125 L 3.390625 -12.03125 L 3.390625 -7.0625 Z M 6.140625 -7.0625 "/></g></g></g><g fill="#000000" fill-opacity="1"><g transform="translate(138.235944, 274.549991)"><g><path d="M 9.671875 0 L 6.328125 -6.015625 L 3.390625 -6.015625 L 3.390625 0 L 1.3125 0 L 1.828125 -13.078125 L 6.140625 -13.078125 C 7.515625 -13.078125 8.617188 -12.753906 9.453125 -12.109375 C 10.296875 -11.460938 10.71875 -10.609375 10.71875 -9.546875 C 10.71875 -8.796875 10.5 -8.140625 10.0625 -7.578125 C 9.625 -7.023438 9.015625 -6.609375 8.234375 -6.328125 L 11.765625 0 Z M 6.140625 -7.0625 C 6.890625 -7.0625 7.488281 -7.285156 7.9375 -7.734375 C 8.394531 -8.191406 8.625 -8.796875 8.625 -9.546875 C 8.625 -10.296875 8.394531 -10.894531 7.9375 -11.34375 C 7.488281 -11.800781 6.890625 -12.03125 6.140625 -12.03125 L 3.390625 -12.03125 L 3.390625 -7.0625 Z M 6.140625 -7.0625 "/></g></g></g><g fill="#000000" fill-opacity="1"><g transform="translate(150.257012, 274.549991)"><g><path d="M 3.390625 -12.03125 L 3.390625 -7.0625 L 8.625 -7.0625 L 8.625 -6.015625 L 3.390625 -6.015625 L 3.390625 -1.046875 L 8.625 -1.046875 L 8.625 0 L 1.3125 0 L 1.828125 -13.078125 L 8.625 -13.078125 L 8.625 -12.03125 Z M 3.390625 -12.03125 "/></g></g></g><g fill="#000000" fill-opacity="1"><g transform="translate(160.187462, 274.549991)"><g><path d="M 8.625 -8.890625 C 8.625 -9.898438 8.394531 -10.675781 7.9375 -11.21875 C 7.488281 -11.757812 6.847656 -12.03125 6.015625 -12.03125 C 5.234375 -12.03125 4.597656 -11.835938 4.109375 -11.453125 C 3.628906 -11.066406 3.390625 -10.5625 3.390625 -9.9375 C 3.390625 -9.414062 3.644531 -8.972656 4.15625 -8.609375 C 4.664062 -8.253906 5.453125 -7.847656 6.515625 -7.390625 C 7.421875 -7.015625 8.148438 -6.664062 8.703125 -6.34375 C 9.265625 -6.019531 9.738281 -5.617188 10.125 -5.140625 C 10.519531 -4.660156 10.71875 -4.078125 10.71875 -3.390625 C 10.71875 -2.378906 10.285156 -1.5625 9.421875 -0.9375 C 8.554688 -0.3125 7.421875 0 6.015625 0 C 4.597656 0 3.457031 -0.3125 2.59375 -0.9375 C 1.738281 -1.5625 1.3125 -2.378906 1.3125 -3.390625 L 3.390625 -4.1875 C 3.390625 -3.175781 3.613281 -2.398438 4.0625 -1.859375 C 4.519531 -1.316406 5.171875 -1.046875 6.015625 -1.046875 C 6.796875 -1.046875 7.425781 -1.238281 7.90625 -1.625 C 8.382812 -2.007812 8.625 -2.515625 8.625 -3.140625 C 8.625 -3.679688 8.351562 -4.144531 7.8125 -4.53125 C 7.269531 -4.925781 6.441406 -5.394531 5.328125 -5.9375 C 4.460938 -6.351562 3.765625 -6.71875 3.234375 -7.03125 C 2.703125 -7.34375 2.25 -7.71875 1.875 -8.15625 C 1.5 -8.601562 1.3125 -9.109375 1.3125 -9.671875 C 1.3125 -10.703125 1.738281 -11.523438 2.59375 -12.140625 C 3.457031 -12.765625 4.597656 -13.078125 6.015625 -13.078125 C 7.421875 -13.078125 8.554688 -12.765625 9.421875 -12.140625 C 10.285156 -11.523438 10.71875 -10.703125 10.71875 -9.671875 Z M 8.625 -8.890625 "/></g></g></g><g fill="#000000" fill-opacity="1"><g transform="translate(172.20853, 274.549991)"><g><path d="M 8.625 -8.890625 C 8.625 -9.898438 8.394531 -10.675781 7.9375 -11.21875 C 7.488281 -11.757812 6.847656 -12.03125 6.015625 -12.03125 C 5.234375 -12.03125 4.597656 -11.835938 4.109375 -11.453125 C 3.628906 -11.066406 3.390625 -10.5625 3.390625 -9.9375 C 3.390625 -9.414062 3.644531 -8.972656 4.15625 -8.609375 C 4.664062 -8.253906 5.453125 -7.847656 6.515625 -7.390625 C 7.421875 -7.015625 8.148438 -6.664062 8.703125 -6.34375 C 9.265625 -6.019531 9.738281 -5.617188 10.125 -5.140625 C 10.519531 -4.660156 10.71875 -4.078125 10.71875 -3.390625 C 10.71875 -2.378906 10.285156 -1.5625 9.421875 -0.9375 C 8.554688 -0.3125 7.421875 0 6.015625 0 C 4.597656 0 3.457031 -0.3125 2.59375 -0.9375 C 1.738281 -1.5625 1.3125 -2.378906 1.3125 -3.390625 L 3.390625 -4.1875 C 3.390625 -3.175781 3.613281 -2.398438 4.0625 -1.859375 C 4.519531 -1.316406 5.171875 -1.046875 6.015625 -1.046875 C 6.796875 -1.046875 7.425781 -1.238281 7.90625 -1.625 C 8.382812 -2.007812 8.625 -2.515625 8.625 -3.140625 C 8.625 -3.679688 8.351562 -4.144531 7.8125 -4.53125 C 7.269531 -4.925781 6.441406 -5.394531 5.328125 -5.9375 C 4.460938 -6.351562 3.765625 -6.71875 3.234375 -7.03125 C 2.703125 -7.34375 2.25 -7.71875 1.875 -8.15625 C 1.5 -8.601562 1.3125 -9.109375 1.3125 -9.671875 C 1.3125 -10.703125 1.738281 -11.523438 2.59375 -12.140625 C 3.457031 -12.765625 4.597656 -13.078125 6.015625 -13.078125 C 7.421875 -13.078125 8.554688 -12.765625 9.421875 -12.140625 C 10.285156 -11.523438 10.71875 -10.703125 10.71875 -9.671875 Z M 8.625 -8.890625 "/></g></g></g><g fill="#000000" fill-opacity="1"><g transform="translate(184.229597, 274.549991)"><g/></g></g><g fill="#000000" fill-opacity="1"><g transform="translate(188.149507, 274.549991)"><g><path d="M 4.703125 -13.078125 C 5.890625 -13.078125 6.941406 -12.804688 7.859375 -12.265625 C 8.773438 -11.722656 9.476562 -10.953125 9.96875 -9.953125 C 10.46875 -8.960938 10.71875 -7.820312 10.71875 -6.53125 C 10.71875 -5.238281 10.46875 -4.097656 9.96875 -3.109375 C 9.476562 -2.117188 8.773438 -1.351562 7.859375 -0.8125 C 6.941406 -0.269531 5.890625 0 4.703125 0 L 1.3125 0 L 1.828125 -13.078125 Z M 8.625 -6.53125 C 8.625 -8.1875 8.265625 -9.515625 7.546875 -10.515625 C 6.835938 -11.523438 5.890625 -12.03125 4.703125 -12.03125 L 3.390625 -12.03125 L 3.390625 -1.046875 L 4.703125 -1.046875 C 5.890625 -1.046875 6.835938 -1.546875 7.546875 -2.546875 C 8.265625 -3.546875 8.625 -4.875 8.625 -6.53125 Z M 8.625 -6.53125 "/></g></g></g><g fill="#000000" fill-opacity="1"><g transform="translate(200.170575, 274.549991)"><g><path d="M 3.390625 -12.03125 L 3.390625 -7.0625 L 8.625 -7.0625 L 8.625 -6.015625 L 3.390625 -6.015625 L 3.390625 -1.046875 L 8.625 -1.046875 L 8.625 0 L 1.3125 0 L 1.828125 -13.078125 L 8.625 -13.078125 L 8.625 -12.03125 Z M 3.390625 -12.03125 "/></g></g></g><g fill="#000000" fill-opacity="1"><g transform="translate(210.101025, 274.549991)"><g><path d="M 3.390625 -1.046875 L 8.625 -1.046875 L 8.625 0 L 1.3125 0 L 1.828125 -13.078125 L 3.390625 -13.078125 Z M 3.390625 -1.046875 "/></g></g></g><g fill="#000000" fill-opacity="1"><g transform="translate(218.98616, 274.549991)"><g><path d="M 3.390625 0 L 1.3125 0 L 1.828125 -13.078125 L 3.390625 -13.078125 Z M 3.390625 0 "/></g></g></g><g fill="#000000" fill-opacity="1"><g transform="translate(223.690059, 274.549991)"><g><path d="M 9.671875 -13.078125 L 11.765625 -13.078125 L 7.1875 0 L 4.84375 0 L 0.265625 -13.078125 L 2.359375 -13.078125 L 6.015625 -1.25 Z M 9.671875 -13.078125 "/></g></g></g><g fill="#000000" fill-opacity="1"><g transform="translate(235.711127, 274.549991)"><g><path d="M 3.390625 -12.03125 L 3.390625 -7.0625 L 8.625 -7.0625 L 8.625 -6.015625 L 3.390625 -6.015625 L 3.390625 -1.046875 L 8.625 -1.046875 L 8.625 0 L 1.3125 0 L 1.828125 -13.078125 L 8.625 -13.078125 L 8.625 -12.03125 Z M 3.390625 -12.03125 "/></g></g></g><g fill="#000000" fill-opacity="1"><g transform="translate(245.641577, 274.549991)"><g><path d="M 9.671875 0 L 6.328125 -6.015625 L 3.390625 -6.015625 L 3.390625 0 L 1.3125 0 L 1.828125 -13.078125 L 6.140625 -13.078125 C 7.515625 -13.078125 8.617188 -12.753906 9.453125 -12.109375 C 10.296875 -11.460938 10.71875 -10.609375 10.71875 -9.546875 C 10.71875 -8.796875 10.5 -8.140625 10.0625 -7.578125 C 9.625 -7.023438 9.015625 -6.609375 8.234375 -6.328125 L 11.765625 0 Z M 6.140625 -7.0625 C 6.890625 -7.0625 7.488281 -7.285156 7.9375 -7.734375 C 8.394531 -8.191406 8.625 -8.796875 8.625 -9.546875 C 8.625 -10.296875 8.394531 -10.894531 7.9375 -11.34375 C 7.488281 -11.800781 6.890625 -12.03125 6.140625 -12.03125 L 3.390625 -12.03125 L 3.390625 -7.0625 Z M 6.140625 -7.0625 "/></g></g></g><g fill="#000000" fill-opacity="1"><g transform="translate(257.662644, 274.549991)"><g><path d="M 9.671875 -13.078125 L 11.765625 -13.078125 L 7.0625 -5.234375 L 7.0625 0 L 4.96875 0 L 4.96875 -5.234375 L 0.265625 -13.078125 L 2.359375 -13.078125 L 6.015625 -6.21875 Z M 9.671875 -13.078125 "/></g></g></g></svg>